0
SECTION
2
HEADER
9
$INSUNITS
70
4
9
$ACADVER
1
AC1014
9
$HANDSEED
5
FFFF
0
ENDSEC
0
SECTION
2
TABLES
0
TABLE
2
VPORT
5
8
100
AcDbSymbolTable
0
ENDTAB
0
TABLE
2
LTYPE
5
5
100
AcDbSymbolTable
0
LTYPE
5
14
100
AcDbSymbolTableRecord
100
AcDbLinetypeTableRecord
2
BYBLOCK
70
0
0
LTYPE
5
15
100
AcDbSymbolTableRecord
100
AcDbLinetypeTableRecord
2
BYLAYER
70
0
0
ENDTAB
0
TABLE
2
LAYER
5
2
100
AcDbSymbolTable
70
2
0
LAYER
5
50
100
AcDbSymbolTableRecord
100
AcDbLayerTableRecord
2
0
70
0
6
CONTINUOUS
0
ENDTAB
0
TABLE
2
STYLE
5
3
100
AcDbSymbolTable
70
1
0
STYLE
5
11
100
AcDbSymbolTableRecord
100
AcDbTextStyleTableRecord
2
STANDARD
70
0
0
ENDTAB
0
TABLE
2
VIEW
5
6
100
AcDbSymbolTable
70
0
0
ENDTAB
0
TABLE
2
UCS
5
7
100
AcDbSymbolTable
70
0
0
ENDTAB
0
TABLE
2
APPID
5
9
100
AcDbSymbolTable
70
2
0
APPID
5
12
100
AcDbSymbolTableRecord
100
AcDbRegAppTableRecord
2
ACAD
70
0
0
ENDTAB
0
TABLE
2
DIMSTYLE
5
A
100
AcDbSymbolTable
70
1
0
ENDTAB
0
TABLE
2
BLOCK_RECORD
5
1
100
AcDbSymbolTable
70
1
0
BLOCK_RECORD
5
1F
100
AcDbSymbolTableRecord
100
AcDbBlockTableRecord
2
*MODEL_SPACE
0
BLOCK_RECORD
5
1B
100
AcDbSymbolTableRecord
100
AcDbBlockTableRecord
2
*PAPER_SPACE
0
ENDTAB
0
ENDSEC
0
SECTION
2
BLOCKS
0
BLOCK
5
20
100
AcDbEntity
100
AcDbBlockBegin
2
*MODEL_SPACE
0
ENDBLK
5
21
100
AcDbEntity
100
AcDbBlockEnd
0
BLOCK
5
1C
100
AcDbEntity
100
AcDbBlockBegin
2
*PAPER_SPACE
0
ENDBLK
5
1D
100
AcDbEntity
100
AcDbBlockEnd
0
ENDSEC
0
SECTION
2
ENTITIES
0
LWPOLYLINE
5
100
100
AcDbEntity
8
0
100
AcDbPolyline
90
4
70
1
43
0.0
10
-222
20
-137.49999999999997
10
178
20
-137.49999999999997
10
178
20
137.50000000000003
10
-222
20
137.50000000000003
0
CIRCLE
5
101
100
AcDbEntity
8
0
100
AcDbCircle
10
-187
20
132.50000000000003
30
0
40
2.0000000000000053
210
0
220
0
230
1
0
CIRCLE
5
102
100
AcDbEntity
8
0
100
AcDbCircle
10
203
20
132.50000000000003
30
0
40
2.0000000000000071
210
0
220
0
230
1
0
CIRCLE
5
103
100
AcDbEntity
8
0
100
AcDbCircle
10
203
20
-132.49999999999997
30
0
40
1.9999999999999982
210
0
220
0
230
1
0
CIRCLE
5
104
100
AcDbEntity
8
0
100
AcDbCircle
10
-187
20
-132.49999999999997
30
0
40
1.9999999999999947
210
0
220
0
230
1
0
LINE
5
105
100
AcDbEntity
8
0
100
AcDbLine
10
-290
20
68.749999999999986
30
0
11
270
21
68.749999999999986
31
0
0
LINE
5
106
100
AcDbEntity
8
0
100
AcDbLine
10
270
20
-68.749999999999986
30
0
11
-300
21
-68.749999999999986
31
0
0
CIRCLE
5
107
100
AcDbEntity
8
0
100
AcDbCircle
10
-338.70000000000005
20
-77.749999999999986
30
0
40
1.9999999999999929
210
0
220
0
230
1
0
CIRCLE
5
108
100
AcDbEntity
8
0
100
AcDbCircle
10
-299.30000000000001
20
-77.749999999999986
30
0
40
2.0000000000000022
210
0
220
0
230
1
0
CIRCLE
5
109
100
AcDbEntity
8
0
100
AcDbCircle
10
-338.70000000000005
20
-59.749999999999979
30
0
40
2.0000000000000053
210
0
220
0
230
1
0
CIRCLE
5
110
100
AcDbEntity
8
0
100
AcDbCircle
10
-299.30000000000001
20
-59.749999999999979
30
0
40
2.0000000000000009
210
0
220
0
230
1
0
LWPOLYLINE
5
111
100
AcDbEntity
8
0
100
AcDbPolyline
90
4
70
1
43
0.0
10
-319.00000000000006
20
-190
10
308
20
-190
10
308
20
190
10
-319
20
190
0
LWPOLYLINE
5
112
100
AcDbEntity
8
0
100
AcDbPolyline
90
4
70
1
43
0.0
10
338.00000000000006
20
149.99999999999997
10
-349
20
149.99999999999997
10
-349
20
-150.00000000000003
10
338.00000000000006
20
-150.00000000000003
0
LINE
5
113
100
AcDbEntity
8
0
100
AcDbLine
10
-122
20
-137.49999999999997
30
0
11
-122
21
137.50000000000003
31
0
0
CIRCLE
5
114
100
AcDbEntity
8
0
100
AcDbCircle
10
-87
20
-132.49999999999997
30
0
40
1.9999999999999925
210
0
220
0
230
1
0
CIRCLE
5
115
100
AcDbEntity
8
0
100
AcDbCircle
10
-87
20
132.50000000000003
30
0
40
1.9999999999999931
210
0
220
0
230
1
0
CIRCLE
5
116
100
AcDbEntity
8
0
100
AcDbCircle
10
254.00000000000003
20
-140.00000000000006
30
0
40
2.000000000000008
210
0
220
0
230
1
0
CIRCLE
5
117
100
AcDbEntity
8
0
100
AcDbCircle
10
214.00000000000003
20
-140.00000000000006
30
0
40
2.0000000000000071
210
0
220
0
230
1
0
LINE
5
118
100
AcDbEntity
8
0
100
AcDbLine
10
234.00000000000003
20
230
30
0
11
234.00000000000003
21
-240
31
0
0
CIRCLE
5
119
100
AcDbEntity
8
0
100
AcDbCircle
10
214.00000000000003
20
139.99999999999997
30
0
40
1.999999999999996
210
0
220
0
230
1
0
CIRCLE
5
120
100
AcDbEntity
8
0
100
AcDbCircle
10
254.00000000000003
20
139.99999999999997
30
0
40
2.0000000000000124
210
0
220
0
230
1
0
LINE
5
121
100
AcDbEntity
8
0
100
AcDbLine
10
-342.64818035535251
20
-77.749999999999986
30
0
11
-333.18115090195101
21
-77.749999999999986
31
0
0
LINE
5
122
100
AcDbEntity
8
0
100
AcDbLine
10
-342.81302813893097
20
-79.746803605718355
30
0
11
-334.70078800398875
21
-79.749999844762428
31
0
0
LINE
5
123
100
AcDbEntity
8
0
100
AcDbLine
10
-334.70078800398875
20
-75.750000155237544
30
0
11
-342.69999996118702
21
-75.749999999999986
31
0
0
ARC
5
124
100
AcDbEntity
8
0
100
AcDbCircle
10
-342.70000000000005
20
-77.75
30
0
40
2.0000000000000111
210
0
220
-0
230
1
100
AcDbArc
50
89.999998888088669
51
273.19459445982693
0
ARC
5
125
100
AcDbEntity
8
0
100
AcDbCircle
10
-334.70000000000005
20
-77.749999999999986
30
0
40
2.0000000000000231
210
0
220
0
230
1
100
AcDbArc
50
-90.022574651980179
51
90.022574651980136
0
ARC
5
126
100
AcDbEntity
8
0
100
AcDbCircle
10
-295.30000000000007
20
-77.749999999999986
30
0
40
2.0000000000000231
210
0
220
0
230
1
100
AcDbArc
50
-90.022574651978545
51
90.022574651978516
0
LINE
5
127
100
AcDbEntity
8
0
100
AcDbLine
10
-303.413028138931
20
-79.746803605718355
30
0
11
-295.30078800398871
21
-79.749999844762428
31
0
0
ARC
5
128
100
AcDbEntity
8
0
100
AcDbCircle
10
-303.30000000000001
20
-77.75
30
0
40
2.0000000000000111
210
0
220
-0
230
1
100
AcDbArc
50
89.999998888088669
51
273.19459445982693
0
LINE
5
129
100
AcDbEntity
8
0
100
AcDbLine
10
-295.30078800398871
20
-75.750000155237544
30
0
11
-303.29999996118698
21
-75.749999999999986
31
0
0
ARC
5
130
100
AcDbEntity
8
0
100
AcDbCircle
10
-334.70000000000005
20
-59.749999999999986
30
0
40
2.0000000000000231
210
0
220
0
230
1
100
AcDbArc
50
-90.022574651980179
51
90.022574651980136
0
LINE
5
131
100
AcDbEntity
8
0
100
AcDbLine
10
-342.81302813893097
20
-61.746803605718355
30
0
11
-334.70078800398875
21
-61.749999844762435
31
0
0
ARC
5
132
100
AcDbEntity
8
0
100
AcDbCircle
10
-342.70000000000005
20
-59.75
30
0
40
2.0000000000000111
210
0
220
-0
230
1
100
AcDbArc
50
89.999998888088669
51
273.19459445982693
0
LINE
5
133
100
AcDbEntity
8
0
100
AcDbLine
10
-334.70078800398875
20
-57.750000155237544
30
0
11
-342.69999996118702
21
-57.749999999999986
31
0
0
ARC
5
134
100
AcDbEntity
8
0
100
AcDbCircle
10
-295.30000000000007
20
-59.749999999999986
30
0
40
2.0000000000000231
210
0
220
0
230
1
100
AcDbArc
50
-90.022574651978545
51
90.022574651978516
0
LINE
5
135
100
AcDbEntity
8
0
100
AcDbLine
10
-303.413028138931
20
-61.746803605718355
30
0
11
-295.30078800398871
21
-61.749999844762435
31
0
0
ARC
5
136
100
AcDbEntity
8
0
100
AcDbCircle
10
-303.30000000000001
20
-59.75
30
0
40
2.0000000000000111
210
0
220
-0
230
1
100
AcDbArc
50
89.999998888088669
51
273.19459445982693
0
LINE
5
137
100
AcDbEntity
8
0
100
AcDbLine
10
-295.30078800398871
20
-57.750000155237544
30
0
11
-303.29999996118698
21
-57.749999999999986
31
0
0
LINE
5
138
100
AcDbEntity
8
0
100
AcDbLine
10
-29.313028138930974
20
-79.746803605718355
30
0
11
-21.20078800398872
21
-79.749999844762428
31
0
0
ARC
5
139
100
AcDbEntity
8
0
100
AcDbCircle
10
-21.200000000000045
20
-77.749999999999986
30
0
40
2.0000000000000231
210
0
220
0
230
1
100
AcDbArc
50
-90.022574651979369
51
90.022574651979326
0
LINE
5
140
100
AcDbEntity
8
0
100
AcDbLine
10
-21.20078800398872
20
-75.750000155237544
30
0
11
-29.199999961186975
21
-75.749999999999986
31
0
0
ARC
5
141
100
AcDbEntity
8
0
100
AcDbCircle
10
-29.200000000000017
20
-77.75
30
0
40
2.0000000000000111
210
0
220
-0
230
1
100
AcDbArc
50
89.999998888088257
51
273.19459445982739
0
ARC
5
142
100
AcDbEntity
8
0
100
AcDbCircle
10
-29.200000000000017
20
-59.75
30
0
40
2.0000000000000111
210
0
220
-0
230
1
100
AcDbArc
50
89.999998888088257
51
273.19459445982739
0
LINE
5
143
100
AcDbEntity
8
0
100
AcDbLine
10
-21.20078800398872
20
-57.750000155237544
30
0
11
-29.199999961186975
21
-57.749999999999986
31
0
0
ARC
5
144
100
AcDbEntity
8
0
100
AcDbCircle
10
-21.200000000000045
20
-59.749999999999986
30
0
40
2.0000000000000231
210
0
220
0
230
1
100
AcDbArc
50
-90.022574651979369
51
90.022574651979326
0
LINE
5
145
100
AcDbEntity
8
0
100
AcDbLine
10
-29.313028138930974
20
-61.746803605718355
30
0
11
-21.20078800398872
21
-61.749999844762435
31
0
0
ARC
5
146
100
AcDbEntity
8
0
100
AcDbCircle
10
10.199999999999996
20
-59.75
30
0
40
2.0000000000000111
210
0
220
-0
230
1
100
AcDbArc
50
89.999998888088257
51
273.19459445982739
0
LINE
5
147
100
AcDbEntity
8
0
100
AcDbLine
10
18.199211996011293
20
-57.750000155237544
30
0
11
10.200000038813037
21
-57.749999999999986
31
0
0
ARC
5
148
100
AcDbEntity
8
0
100
AcDbCircle
10
18.199999999999967
20
-59.749999999999986
30
0
40
2.0000000000000231
210
0
220
0
230
1
100
AcDbArc
50
-90.022574651979369
51
90.022574651979326
0
LINE
5
149
100
AcDbEntity
8
0
100
AcDbLine
10
10.086971861069038
20
-61.746803605718355
30
0
11
18.199211996011293
21
-61.749999844762435
31
0
0
LINE
5
150
100
AcDbEntity
8
0
100
AcDbLine
10
18.199211996011293
20
-75.750000155237544
30
0
11
10.200000038813037
21
-75.749999999999986
31
0
0
ARC
5
151
100
AcDbEntity
8
0
100
AcDbCircle
10
18.199999999999967
20
-77.749999999999986
30
0
40
2.0000000000000231
210
0
220
0
230
1
100
AcDbArc
50
-90.022574651979369
51
90.022574651979326
0
LINE
5
152
100
AcDbEntity
8
0
100
AcDbLine
10
10.086971861069038
20
-79.746803605718355
30
0
11
18.199211996011293
21
-79.749999844762428
31
0
0
ARC
5
153
100
AcDbEntity
8
0
100
AcDbCircle
10
10.199999999999996
20
-77.75
30
0
40
2.0000000000000111
210
0
220
-0
230
1
100
AcDbArc
50
89.999998888088257
51
273.19459445982739
0
LINE
5
154
100
AcDbEntity
8
0
100
AcDbLine
10
284.18697186106903
20
-79.746803605718355
30
0
11
292.29921199601131
21
-79.749999844762428
31
0
0
ARC
5
155
100
AcDbEntity
8
0
100
AcDbCircle
10
292.29999999999995
20
-77.749999999999986
30
0
40
2.0000000000000231
210
0
220
0
230
1
100
AcDbArc
50
-90.022574651978545
51
90.022574651978516
0
LINE
5
156
100
AcDbEntity
8
0
100
AcDbLine
10
292.29921199601131
20
-75.750000155237544
30
0
11
284.30000003881304
21
-75.749999999999986
31
0
0
ARC
5
157
100
AcDbEntity
8
0
100
AcDbCircle
10
284.30000000000001
20
-77.75
30
0
40
2.0000000000000111
210
0
220
-0
230
1
100
AcDbArc
50
89.999998888088669
51
273.19459445982693
0
ARC
5
158
100
AcDbEntity
8
0
100
AcDbCircle
10
284.30000000000001
20
-59.75
30
0
40
2.0000000000000111
210
0
220
-0
230
1
100
AcDbArc
50
89.999998888088669
51
273.19459445982693
0
LINE
5
159
100
AcDbEntity
8
0
100
AcDbLine
10
292.29921199601131
20
-57.750000155237544
30
0
11
284.30000003881304
21
-57.749999999999986
31
0
0
ARC
5
160
100
AcDbEntity
8
0
100
AcDbCircle
10
292.29999999999995
20
-59.749999999999986
30
0
40
2.0000000000000231
210
0
220
0
230
1
100
AcDbArc
50
-90.022574651978545
51
90.022574651978516
0
LINE
5
161
100
AcDbEntity
8
0
100
AcDbLine
10
284.18697186106903
20
-61.746803605718355
30
0
11
292.29921199601131
21
-61.749999844762435
31
0
0
ARC
5
162
100
AcDbEntity
8
0
100
AcDbCircle
10
323.70000000000005
20
-59.75
30
0
40
2.0000000000000111
210
0
220
-0
230
1
100
AcDbArc
50
89.999998888090303
51
273.19459445982528
0
LINE
5
163
100
AcDbEntity
8
0
100
AcDbLine
10
331.69921199601134
20
-57.750000155237544
30
0
11
323.70000003881302
21
-57.749999999999986
31
0
0
ARC
5
164
100
AcDbEntity
8
0
100
AcDbCircle
10
331.70000000000005
20
-59.749999999999986
30
0
40
2.0000000000000231
210
0
220
0
230
1
100
AcDbArc
50
-90.022574651980179
51
90.022574651980136
0
LINE
5
165
100
AcDbEntity
8
0
100
AcDbLine
10
323.58697186106906
20
-61.746803605718355
30
0
11
331.69921199601134
21
-61.749999844762435
31
0
0
LINE
5
166
100
AcDbEntity
8
0
100
AcDbLine
10
331.69921199601134
20
-75.750000155237544
30
0
11
323.70000003881302
21
-75.749999999999986
31
0
0
ARC
5
167
100
AcDbEntity
8
0
100
AcDbCircle
10
331.70000000000005
20
-77.749999999999986
30
0
40
2.0000000000000231
210
0
220
0
230
1
100
AcDbArc
50
-90.022574651980179
51
90.022574651980136
0
LINE
5
168
100
AcDbEntity
8
0
100
AcDbLine
10
323.58697186106906
20
-79.746803605718355
30
0
11
331.69921199601134
21
-79.749999844762428
31
0
0
ARC
5
169
100
AcDbEntity
8
0
100
AcDbCircle
10
323.70000000000005
20
-77.75
30
0
40
2.0000000000000111
210
0
220
-0
230
1
100
AcDbArc
50
89.999998888090303
51
273.19459445982528
0
LINE
5
170
100
AcDbEntity
8
0
100
AcDbLine
10
-342.81302813893097
20
57.753196394281645
30
0
11
-334.70078800398875
21
57.750000155237572
31
0
0
ARC
5
171
100
AcDbEntity
8
0
100
AcDbCircle
10
-334.70000000000005
20
59.750000000000014
30
0
40
2.0000000000000231
210
0
220
0
230
1
100
AcDbArc
50
-90.022574651980179
51
90.022574651980136
0
LINE
5
172
100
AcDbEntity
8
0
100
AcDbLine
10
-334.70078800398875
20
61.749999844762456
30
0
11
-342.69999996118702
21
61.750000000000014
31
0
0
ARC
5
173
100
AcDbEntity
8
0
100
AcDbCircle
10
-342.70000000000005
20
59.750000000000007
30
0
40
2.0000000000000111
210
0
220
-0
230
1
100
AcDbArc
50
89.999998888088669
51
273.19459445982687
0
ARC
5
174
100
AcDbEntity
8
0
100
AcDbCircle
10
-342.70000000000005
20
77.75
30
0
40
2.0000000000000111
210
0
220
-0
230
1
100
AcDbArc
50
89.999998888088669
51
273.19459445982693
0
LINE
5
175
100
AcDbEntity
8
0
100
AcDbLine
10
-334.70078800398875
20
79.749999844762456
30
0
11
-342.69999996118702
21
79.750000000000014
31
0
0
ARC
5
176
100
AcDbEntity
8
0
100
AcDbCircle
10
-334.70000000000005
20
77.750000000000014
30
0
40
2.0000000000000231
210
0
220
0
230
1
100
AcDbArc
50
-90.022574651980179
51
90.022574651980136
0
LINE
5
177
100
AcDbEntity
8
0
100
AcDbLine
10
-342.81302813893097
20
75.753196394281645
30
0
11
-334.70078800398875
21
75.750000155237572
31
0
0
ARC
5
178
100
AcDbEntity
8
0
100
AcDbCircle
10
-303.30000000000001
20
77.75
30
0
40
2.0000000000000111
210
0
220
-0
230
1
100
AcDbArc
50
89.999998888088669
51
273.19459445982693
0
LINE
5
179
100
AcDbEntity
8
0
100
AcDbLine
10
-295.30078800398871
20
79.749999844762456
30
0
11
-303.29999996118698
21
79.750000000000014
31
0
0
ARC
5
180
100
AcDbEntity
8
0
100
AcDbCircle
10
-295.30000000000007
20
77.750000000000014
30
0
40
2.0000000000000231
210
0
220
0
230
1
100
AcDbArc
50
-90.022574651978545
51
90.022574651978516
0
LINE
5
181
100
AcDbEntity
8
0
100
AcDbLine
10
-303.413028138931
20
75.753196394281645
30
0
11
-295.30078800398871
21
75.750000155237572
31
0
0
LINE
5
182
100
AcDbEntity
8
0
100
AcDbLine
10
-295.30078800398871
20
61.749999844762456
30
0
11
-303.29999996118698
21
61.750000000000014
31
0
0
ARC
5
183
100
AcDbEntity
8
0
100
AcDbCircle
10
-295.30000000000007
20
59.750000000000014
30
0
40
2.0000000000000231
210
0
220
0
230
1
100
AcDbArc
50
-90.022574651978545
51
90.022574651978516
0
LINE
5
184
100
AcDbEntity
8
0
100
AcDbLine
10
-303.413028138931
20
57.753196394281645
30
0
11
-295.30078800398871
21
57.750000155237572
31
0
0
ARC
5
185
100
AcDbEntity
8
0
100
AcDbCircle
10
-303.30000000000001
20
59.750000000000007
30
0
40
2.0000000000000111
210
0
220
-0
230
1
100
AcDbArc
50
89.999998888088669
51
273.19459445982687
0
LINE
5
186
100
AcDbEntity
8
0
100
AcDbLine
10
-29.313028138930974
20
57.753196394281645
30
0
11
-21.20078800398872
21
57.750000155237572
31
0
0
ARC
5
187
100
AcDbEntity
8
0
100
AcDbCircle
10
-21.200000000000045
20
59.750000000000014
30
0
40
2.0000000000000231
210
0
220
0
230
1
100
AcDbArc
50
-90.022574651979369
51
90.022574651979326
0
LINE
5
188
100
AcDbEntity
8
0
100
AcDbLine
10
-21.20078800398872
20
61.749999844762456
30
0
11
-29.199999961186975
21
61.750000000000014
31
0
0
ARC
5
189
100
AcDbEntity
8
0
100
AcDbCircle
10
-29.200000000000017
20
59.750000000000007
30
0
40
2.0000000000000111
210
0
220
-0
230
1
100
AcDbArc
50
89.999998888088257
51
273.19459445982727
0
ARC
5
190
100
AcDbEntity
8
0
100
AcDbCircle
10
-29.200000000000017
20
77.75
30
0
40
2.0000000000000111
210
0
220
-0
230
1
100
AcDbArc
50
89.999998888088257
51
273.19459445982739
0
LINE
5
191
100
AcDbEntity
8
0
100
AcDbLine
10
-21.20078800398872
20
79.749999844762456
30
0
11
-29.199999961186975
21
79.750000000000014
31
0
0
ARC
5
192
100
AcDbEntity
8
0
100
AcDbCircle
10
-21.200000000000045
20
77.750000000000014
30
0
40
2.0000000000000231
210
0
220
0
230
1
100
AcDbArc
50
-90.022574651979369
51
90.022574651979326
0
LINE
5
193
100
AcDbEntity
8
0
100
AcDbLine
10
-29.313028138930974
20
75.753196394281645
30
0
11
-21.20078800398872
21
75.750000155237572
31
0
0
ARC
5
194
100
AcDbEntity
8
0
100
AcDbCircle
10
10.199999999999996
20
77.75
30
0
40
2.0000000000000111
210
0
220
-0
230
1
100
AcDbArc
50
89.999998888088257
51
273.19459445982739
0
LINE
5
195
100
AcDbEntity
8
0
100
AcDbLine
10
18.199211996011293
20
79.749999844762456
30
0
11
10.200000038813037
21
79.750000000000014
31
0
0
ARC
5
196
100
AcDbEntity
8
0
100
AcDbCircle
10
18.199999999999967
20
77.750000000000014
30
0
40
2.0000000000000231
210
0
220
0
230
1
100
AcDbArc
50
-90.022574651979369
51
90.022574651979326
0
LINE
5
197
100
AcDbEntity
8
0
100
AcDbLine
10
10.086971861069038
20
75.753196394281645
30
0
11
18.199211996011293
21
75.750000155237572
31
0
0
LINE
5
198
100
AcDbEntity
8
0
100
AcDbLine
10
18.199211996011293
20
61.749999844762456
30
0
11
10.200000038813037
21
61.750000000000014
31
0
0
ARC
5
199
100
AcDbEntity
8
0
100
AcDbCircle
10
18.199999999999967
20
59.750000000000014
30
0
40
2.0000000000000231
210
0
220
0
230
1
100
AcDbArc
50
-90.022574651979369
51
90.022574651979326
0
LINE
5
200
100
AcDbEntity
8
0
100
AcDbLine
10
10.086971861069038
20
57.753196394281645
30
0
11
18.199211996011293
21
57.750000155237572
31
0
0
ARC
5
201
100
AcDbEntity
8
0
100
AcDbCircle
10
10.199999999999996
20
59.750000000000007
30
0
40
2.0000000000000111
210
0
220
-0
230
1
100
AcDbArc
50
89.999998888088257
51
273.19459445982727
0
LINE
5
202
100
AcDbEntity
8
0
100
AcDbLine
10
284.18697186106903
20
57.753196394281645
30
0
11
292.29921199601131
21
57.750000155237572
31
0
0
ARC
5
203
100
AcDbEntity
8
0
100
AcDbCircle
10
292.29999999999995
20
59.750000000000014
30
0
40
2.0000000000000231
210
0
220
0
230
1
100
AcDbArc
50
-90.022574651978545
51
90.022574651978516
0
LINE
5
204
100
AcDbEntity
8
0
100
AcDbLine
10
292.29921199601131
20
61.749999844762456
30
0
11
284.30000003881304
21
61.750000000000014
31
0
0
ARC
5
205
100
AcDbEntity
8
0
100
AcDbCircle
10
284.30000000000001
20
59.750000000000007
30
0
40
2.0000000000000111
210
0
220
-0
230
1
100
AcDbArc
50
89.999998888088669
51
273.19459445982687
0
ARC
5
206
100
AcDbEntity
8
0
100
AcDbCircle
10
284.30000000000001
20
77.75
30
0
40
2.0000000000000111
210
0
220
-0
230
1
100
AcDbArc
50
89.999998888088669
51
273.19459445982693
0
LINE
5
207
100
AcDbEntity
8
0
100
AcDbLine
10
292.29921199601131
20
79.749999844762456
30
0
11
284.30000003881304
21
79.750000000000014
31
0
0
ARC
5
208
100
AcDbEntity
8
0
100
AcDbCircle
10
292.29999999999995
20
77.750000000000014
30
0
40
2.0000000000000231
210
0
220
0
230
1
100
AcDbArc
50
-90.022574651978545
51
90.022574651978516
0
LINE
5
209
100
AcDbEntity
8
0
100
AcDbLine
10
284.18697186106903
20
75.753196394281645
30
0
11
292.29921199601131
21
75.750000155237572
31
0
0
ARC
5
210
100
AcDbEntity
8
0
100
AcDbCircle
10
323.70000000000005
20
77.75
30
0
40
2.0000000000000111
210
0
220
-0
230
1
100
AcDbArc
50
89.999998888090303
51
273.19459445982528
0
LINE
5
211
100
AcDbEntity
8
0
100
AcDbLine
10
331.69921199601134
20
79.749999844762456
30
0
11
323.70000003881302
21
79.750000000000014
31
0
0
ARC
5
212
100
AcDbEntity
8
0
100
AcDbCircle
10
331.70000000000005
20
77.750000000000014
30
0
40
2.0000000000000231
210
0
220
0
230
1
100
AcDbArc
50
-90.022574651980179
51
90.022574651980136
0
LINE
5
213
100
AcDbEntity
8
0
100
AcDbLine
10
323.58697186106906
20
75.753196394281645
30
0
11
331.69921199601134
21
75.750000155237572
31
0
0
LINE
5
214
100
AcDbEntity
8
0
100
AcDbLine
10
331.69921199601134
20
61.749999844762456
30
0
11
323.70000003881302
21
61.750000000000014
31
0
0
ARC
5
215
100
AcDbEntity
8
0
100
AcDbCircle
10
331.70000000000005
20
59.750000000000014
30
0
40
2.0000000000000231
210
0
220
0
230
1
100
AcDbArc
50
-90.022574651980179
51
90.022574651980136
0
LINE
5
216
100
AcDbEntity
8
0
100
AcDbLine
10
323.58697186106906
20
57.753196394281645
30
0
11
331.69921199601134
21
57.750000155237572
31
0
0
ARC
5
217
100
AcDbEntity
8
0
100
AcDbCircle
10
323.70000000000005
20
59.750000000000007
30
0
40
2.0000000000000111
210
0
220
-0
230
1
100
AcDbArc
50
89.999998888090303
51
273.19459445982528
0
CIRCLE
5
218
100
AcDbEntity
8
0
100
AcDbCircle
10
-344
20
-142.60000000000002
30
0
40
2.0000000000000249
210
0
220
0
230
1
0
CIRCLE
5
219
100
AcDbEntity
8
0
100
AcDbCircle
10
-285
20
-142.60000000000002
30
0
40
2
210
0
220
0
230
1
0
LINE
5
220
100
AcDbEntity
8
0
100
AcDbLine
10
-344
20
-142.60000000000002
30
0
11
-285
21
-142.60000000000002
31
0
0
LINE
5
221
100
AcDbEntity
8
0
100
AcDbLine
10
-314.5
20
-142.60000000000002
30
0
11
-314.5
21
180
31
0
0
CIRCLE
5
222
100
AcDbEntity
8
0
100
AcDbCircle
10
-334.5
20
139.99999999999997
30
0
40
2.0000000000000009
210
0
220
0
230
1
0
CIRCLE
5
223
100
AcDbEntity
8
0
100
AcDbCircle
10
-294.5
20
139.99999999999997
30
0
40
2.0000000000000115
210
0
220
0
230
1
0
CIRCLE
5
224
100
AcDbEntity
8
0
100
AcDbCircle
10
-150.99999999999997
20
-137
30
0
40
2.0000000000000036
210
0
220
0
230
1
0
CIRCLE
5
225
100
AcDbEntity
8
0
100
AcDbCircle
10
-110.99999999999997
20
-137
30
0
40
1.9999999999999971
210
0
220
0
230
1
0
CIRCLE
5
226
100
AcDbEntity
8
0
100
AcDbCircle
10
-150.99999999999997
20
136.99999999999997
30
0
40
2.0000000000000022
210
0
220
0
230
1
0
CIRCLE
5
227
100
AcDbEntity
8
0
100
AcDbCircle
10
-110.99999999999997
20
136.99999999999997
30
0
40
2.0000000000000098
210
0
220
0
230
1
0
LINE
5
228
100
AcDbEntity
8
0
100
AcDbLine
10
-222
20
200
30
0
11
-222
21
-290
31
0
0
LWPOLYLINE
5
229
100
AcDbEntity
8
0
100
AcDbPolyline
90
4
70
1
43
0.0
10
-204
20
-135
10
-272
20
-135.00000000000003
42
0.99999999999999989
10
-272
20
-138.99999999999997
10
-204
20
-138.99999999999997
42
0.99999999999999989
0
LINE
5
230
100
AcDbEntity
8
0
100
AcDbLine
10
-272
20
134.99999999999997
30
0
11
-204
21
135
31
0
0
LINE
5
231
100
AcDbEntity
8
0
100
AcDbLine
10
-204.00091238425773
20
138.99999979188868
30
0
11
-271.99999999387899
21
139
31
0
0
ARC
5
232
100
AcDbEntity
8
0
100
AcDbCircle
10
-272
20
136.99999999999997
30
0
40
2.0000000000000107
210
0
220
-0
230
1
100
AcDbArc
50
89.999999824645897
51
270
0
ARC
5
233
100
AcDbEntity
8
0
100
AcDbCircle
10
-204
20
136.99999999999997
30
0
40
1.9999999999999751
210
0
220
0
230
1
100
AcDbArc
50
-90
51
90.026137884537675
0
ENDSEC
0
SECTION
2
OBJECTS
0
DICTIONARY
5
C
100
AcDbDictionary
3
ACAD_GROUP
350
D
3
ACAD_MLINESTYLE
350
17
0
DICTIONARY
5
D
100
AcDbDictionary
0
DICTIONARY
5
1A
330
C
100
AcDbDictionary
0
DICTIONARY
5
17
100
AcDbDictionary
0
ENDSEC
0
EOF
