0
SECTION
2
HEADER
9
$INSUNITS
70
4
9
$ACADVER
1
AC1014
9
$HANDSEED
5
FFFF
0
ENDSEC
0
SECTION
2
TABLES
0
TABLE
2
VPORT
5
8
100
AcDbSymbolTable
0
ENDTAB
0
TABLE
2
LTYPE
5
5
100
AcDbSymbolTable
0
LTYPE
5
14
100
AcDbSymbolTableRecord
100
AcDbLinetypeTableRecord
2
BYBLOCK
70
0
0
LTYPE
5
15
100
AcDbSymbolTableRecord
100
AcDbLinetypeTableRecord
2
BYLAYER
70
0
0
ENDTAB
0
TABLE
2
LAYER
5
2
100
AcDbSymbolTable
70
2
0
LAYER
5
50
100
AcDbSymbolTableRecord
100
AcDbLayerTableRecord
2
0
70
0
6
CONTINUOUS
0
ENDTAB
0
TABLE
2
STYLE
5
3
100
AcDbSymbolTable
70
1
0
STYLE
5
11
100
AcDbSymbolTableRecord
100
AcDbTextStyleTableRecord
2
STANDARD
70
0
0
ENDTAB
0
TABLE
2
VIEW
5
6
100
AcDbSymbolTable
70
0
0
ENDTAB
0
TABLE
2
UCS
5
7
100
AcDbSymbolTable
70
0
0
ENDTAB
0
TABLE
2
APPID
5
9
100
AcDbSymbolTable
70
2
0
APPID
5
12
100
AcDbSymbolTableRecord
100
AcDbRegAppTableRecord
2
ACAD
70
0
0
ENDTAB
0
TABLE
2
DIMSTYLE
5
A
100
AcDbSymbolTable
70
1
0
ENDTAB
0
TABLE
2
BLOCK_RECORD
5
1
100
AcDbSymbolTable
70
1
0
BLOCK_RECORD
5
1F
100
AcDbSymbolTableRecord
100
AcDbBlockTableRecord
2
*MODEL_SPACE
0
BLOCK_RECORD
5
1B
100
AcDbSymbolTableRecord
100
AcDbBlockTableRecord
2
*PAPER_SPACE
0
ENDTAB
0
ENDSEC
0
SECTION
2
BLOCKS
0
BLOCK
5
20
100
AcDbEntity
100
AcDbBlockBegin
2
*MODEL_SPACE
0
ENDBLK
5
21
100
AcDbEntity
100
AcDbBlockEnd
0
BLOCK
5
1C
100
AcDbEntity
100
AcDbBlockBegin
2
*PAPER_SPACE
0
ENDBLK
5
1D
100
AcDbEntity
100
AcDbBlockEnd
0
ENDSEC
0
SECTION
2
ENTITIES
0
LINE
5
100
100
AcDbEntity
8
0
100
AcDbLine
10
284.20000000000022
20
-291.29900000000009
30
0
11
-284.2000000000001
21
-291.29900000000004
31
0
0
LINE
5
101
100
AcDbEntity
8
0
100
AcDbLine
10
-284.2000000000001
20
-291.29900000000004
30
0
11
-284.2000000000001
21
291.29899999999992
31
0
0
LINE
5
102
100
AcDbEntity
8
0
100
AcDbLine
10
-284.2000000000001
20
291.29899999999992
30
0
11
284.19999999999993
21
291.29899999999992
31
0
0
LINE
5
103
100
AcDbEntity
8
0
100
AcDbLine
10
284.19999999999993
20
291.29899999999992
30
0
11
284.20000000000022
21
-291.29900000000009
31
0
0
LINE
5
104
100
AcDbEntity
8
0
100
AcDbLine
10
284.20000000000022
20
-291.29900000000009
30
0
11
-284.2000000000001
21
291.29899999999992
31
0
0
LINE
5
105
100
AcDbEntity
8
0
100
AcDbLine
10
-284.2000000000001
20
-291.29900000000004
30
0
11
284.19999999999993
21
291.29899999999992
31
0
0
LINE
5
106
100
AcDbEntity
8
0
100
AcDbLine
10
-261.35000000000014
20
291.29899999999992
30
0
11
-261.35000000000014
21
-291.29900000000009
31
0
0
CIRCLE
5
107
100
AcDbEntity
8
0
100
AcDbCircle
10
-261.35000000000014
20
280.63899999999995
30
0
40
1.9999999999999882
0
CIRCLE
5
108
100
AcDbEntity
8
0
100
AcDbCircle
10
-261.35000000000014
20
266.49999999999989
30
0
40
1.9999999999999849
0
CIRCLE
5
109
100
AcDbEntity
8
0
100
AcDbCircle
10
-261.35000000000014
20
-280.63900000000001
30
0
40
1.9999999999999931
0
CIRCLE
5
110
100
AcDbEntity
8
0
100
AcDbCircle
10
-261.35000000000014
20
-266.5
30
0
40
2.0000000000000036
0
LINE
5
111
100
AcDbEntity
8
0
100
AcDbLine
10
261.35000000000002
20
291.29899999999992
30
0
11
261.35000000000002
21
-291.29900000000009
31
0
0
CIRCLE
5
112
100
AcDbEntity
8
0
100
AcDbCircle
10
261.35000000000002
20
280.63899999999995
30
0
40
1.9999999999999929
0
CIRCLE
5
113
100
AcDbEntity
8
0
100
AcDbCircle
10
261.35000000000002
20
266.49999999999989
30
0
40
1.9999999999999951
0
CIRCLE
5
114
100
AcDbEntity
8
0
100
AcDbCircle
10
261.35000000000002
20
-280.63900000000001
30
0
40
1.9999999999999993
0
CIRCLE
5
115
100
AcDbEntity
8
0
100
AcDbCircle
10
261.35000000000002
20
-266.5
30
0
40
2.0000000000000124
0
LINE
5
116
100
AcDbEntity
8
0
100
AcDbLine
10
-261.35000000000014
20
-266.5
30
0
11
261.35000000000002
21
-266.5
31
0
0
CIRCLE
5
117
100
AcDbEntity
8
0
100
AcDbCircle
10
-2.1355896199821112e-14
20
-273.16000000000008
30
0
40
2
0
LINE
5
118
100
AcDbEntity
8
0
100
AcDbLine
10
-2.0894994150907195e-14
20
-291.29900000000004
30
0
11
-3.5698490037844235e-14
21
291.29899999999998
31
0
0
CIRCLE
5
119
100
AcDbEntity
8
0
100
AcDbCircle
10
-3.5237587988930321e-14
20
273.15999999999997
30
0
40
1.999999999999994
0
CIRCLE
5
120
100
AcDbEntity
8
0
100
AcDbCircle
10
-3.5596852230045812e-14
20
287.29899999999992
30
0
40
1.9999999999999996
0
CIRCLE
5
121
100
AcDbEntity
8
0
100
AcDbCircle
10
-2.0996631958705624e-14
20
-287.29900000000009
30
0
40
2.0000000000000089
0
LWPOLYLINE
5
122
100
AcDbEntity
8
0
100
AcDbPolyline
90
8
70
1
43
0.0
10
-180
20
225
10
180
20
225
42
-0.41421356237309503
10
200
20
205
10
200
20
-205
42
-0.41421356237309503
10
180
20
-225
10
-180
20
-225
42
-0.41421356237309503
10
-200
20
-205
10
-200
20
205
42
-0.41421356237309503
0
LINE
5
123
100
AcDbEntity
8
0
100
AcDbLine
10
200
20
225
30
0
11
-200
21
-225
31
0
0
LINE
5
124
100
AcDbEntity
8
0
100
AcDbLine
10
-200
20
225
30
0
11
200
21
-225
31
0
0
LWPOLYLINE
5
125
100
AcDbEntity
8
0
100
AcDbPolyline
90
4
70
1
43
0.0
10
289.19999999999993
20
296.29899999999992
10
-289.20000000000005
20
296.29899999999998
10
-289.2000000000001
20
-296.29900000000004
10
289.20000000000005
20
-296.29900000000009
0
CIRCLE
5
126
100
AcDbEntity
8
0
100
AcDbCircle
10
279.19999999999999
20
101.29899999999992
30
0
40
1.9999999999999996
0
CIRCLE
5
127
100
AcDbEntity
8
0
100
AcDbCircle
10
279.20000000000005
20
-101.29900000000004
30
0
40
1.9999999999999973
0
CIRCLE
5
128
100
AcDbEntity
8
0
100
AcDbCircle
10
-279.2000000000001
20
-101.29900000000004
30
0
40
2.000000000000008
0
CIRCLE
5
129
100
AcDbEntity
8
0
100
AcDbCircle
10
-279.2000000000001
20
101.29899999999992
30
0
40
2.0000000000000058
0
LINE
5
130
100
AcDbEntity
8
0
100
AcDbLine
10
1.2141862753491242e-13
20
-372.49899999999997
30
0
11
-3.5527136788005009e-14
21
-296.29900000000004
31
0
0
LINE
5
131
100
AcDbEntity
8
0
100
AcDbLine
10
-261.35000000000014
20
266.49999999999989
30
0
11
261.35000000000002
21
266.49999999999989
31
0
0
LINE
5
132
100
AcDbEntity
8
0
100
AcDbLine
10
261.35000000000002
20
-280.63900000000001
30
0
11
-261.35000000000014
21
-280.63900000000001
31
0
0
LINE
5
133
100
AcDbEntity
8
0
100
AcDbLine
10
261.35000000000002
20
280.63899999999995
30
0
11
-261.35000000000014
21
280.63899999999995
31
0
0
LWPOLYLINE
5
134
100
AcDbEntity
8
0
100
AcDbPolyline
90
8
70
1
43
0.0
10
195
20
205
10
195
20
-205
42
-0.41421356237309503
10
180
20
-220
10
-180
20
-220
42
-0.41421356237309503
10
-195
20
-205
10
-195
20
205
42
-0.41421356237309503
10
-180
20
220
10
180
20
220
42
-0.41421356237309503
0
LWPOLYLINE
5
135
100
AcDbEntity
8
0
100
AcDbPolyline
90
8
70
1
43
0.0
10
180
20
-230
10
-180
20
-230
42
-0.41421356237309503
10
-205
20
-205
10
-205
20
205
42
-0.41421356237309503
10
-180
20
230
10
180
20
230
42
-0.41421356237309503
10
205
20
205
10
205
20
-205
42
-0.41421356237309503
0
ENDSEC
0
SECTION
2
OBJECTS
0
DICTIONARY
5
C
100
AcDbDictionary
3
ACAD_GROUP
350
D
3
ACAD_MLINESTYLE
350
17
0
DICTIONARY
5
D
100
AcDbDictionary
0
DICTIONARY
5
1A
330
C
100
AcDbDictionary
0
DICTIONARY
5
17
100
AcDbDictionary
0
ENDSEC
0
EOF
