0
SECTION
2
HEADER
9
$INSUNITS
70
4
9
$ACADVER
1
AC1014
9
$HANDSEED
5
FFFF
0
ENDSEC
0
SECTION
2
TABLES
0
TABLE
2
VPORT
5
8
100
AcDbSymbolTable
0
ENDTAB
0
TABLE
2
LTYPE
5
5
100
AcDbSymbolTable
0
LTYPE
5
14
100
AcDbSymbolTableRecord
100
AcDbLinetypeTableRecord
2
BYBLOCK
70
0
0
LTYPE
5
15
100
AcDbSymbolTableRecord
100
AcDbLinetypeTableRecord
2
BYLAYER
70
0
0
ENDTAB
0
TABLE
2
LAYER
5
2
100
AcDbSymbolTable
70
2
0
LAYER
5
50
100
AcDbSymbolTableRecord
100
AcDbLayerTableRecord
2
0
70
0
6
CONTINUOUS
0
ENDTAB
0
TABLE
2
STYLE
5
3
100
AcDbSymbolTable
70
1
0
STYLE
5
11
100
AcDbSymbolTableRecord
100
AcDbTextStyleTableRecord
2
STANDARD
70
0
0
ENDTAB
0
TABLE
2
VIEW
5
6
100
AcDbSymbolTable
70
0
0
ENDTAB
0
TABLE
2
UCS
5
7
100
AcDbSymbolTable
70
0
0
ENDTAB
0
TABLE
2
APPID
5
9
100
AcDbSymbolTable
70
2
0
APPID
5
12
100
AcDbSymbolTableRecord
100
AcDbRegAppTableRecord
2
ACAD
70
0
0
ENDTAB
0
TABLE
2
DIMSTYLE
5
A
100
AcDbSymbolTable
70
1
0
ENDTAB
0
TABLE
2
BLOCK_RECORD
5
1
100
AcDbSymbolTable
70
1
0
BLOCK_RECORD
5
1F
100
AcDbSymbolTableRecord
100
AcDbBlockTableRecord
2
*MODEL_SPACE
0
BLOCK_RECORD
5
1B
100
AcDbSymbolTableRecord
100
AcDbBlockTableRecord
2
*PAPER_SPACE
0
ENDTAB
0
ENDSEC
0
SECTION
2
BLOCKS
0
BLOCK
5
20
100
AcDbEntity
100
AcDbBlockBegin
2
*MODEL_SPACE
0
ENDBLK
5
21
100
AcDbEntity
100
AcDbBlockEnd
0
BLOCK
5
1C
100
AcDbEntity
100
AcDbBlockBegin
2
*PAPER_SPACE
0
ENDBLK
5
1D
100
AcDbEntity
100
AcDbBlockEnd
0
ENDSEC
0
SECTION
2
ENTITIES
0
LINE
5
100
100
AcDbEntity
8
0
100
AcDbLine
10
298.20000000000005
20
-291.29900000000004
30
0
11
-298.20000000000005
21
-291.29900000000004
31
0
0
LINE
5
101
100
AcDbEntity
8
0
100
AcDbLine
10
-298.20000000000005
20
-291.29900000000004
30
0
11
-298.20000000000005
21
291.29899999999998
31
0
0
LINE
5
102
100
AcDbEntity
8
0
100
AcDbLine
10
-298.20000000000005
20
291.29899999999998
30
0
11
298.19999999999999
21
291.29899999999998
31
0
0
LINE
5
103
100
AcDbEntity
8
0
100
AcDbLine
10
298.19999999999999
20
291.29899999999998
30
0
11
298.20000000000005
21
-291.29900000000004
31
0
0
LINE
5
104
100
AcDbEntity
8
0
100
AcDbLine
10
298.20000000000005
20
-291.29900000000004
30
0
11
-298.20000000000005
21
291.29899999999998
31
0
0
LINE
5
105
100
AcDbEntity
8
0
100
AcDbLine
10
-298.20000000000005
20
-291.29900000000004
30
0
11
298.19999999999999
21
291.29899999999998
31
0
0
LINE
5
106
100
AcDbEntity
8
0
100
AcDbLine
10
-275.35000000000002
20
291.29899999999998
30
0
11
-275.35000000000002
21
-291.29900000000004
31
0
0
CIRCLE
5
107
100
AcDbEntity
8
0
100
AcDbCircle
10
-275.35000000000002
20
280.63899999999995
30
0
40
1.9999999999999882
0
CIRCLE
5
108
100
AcDbEntity
8
0
100
AcDbCircle
10
-275.35000000000002
20
266.49999999999994
30
0
40
1.9999999999999849
0
CIRCLE
5
109
100
AcDbEntity
8
0
100
AcDbCircle
10
-275.35000000000002
20
-280.63900000000001
30
0
40
1.9999999999999931
0
CIRCLE
5
110
100
AcDbEntity
8
0
100
AcDbCircle
10
-275.35000000000002
20
-266.5
30
0
40
2.0000000000000036
0
LINE
5
111
100
AcDbEntity
8
0
100
AcDbLine
10
275.35000000000002
20
291.29899999999998
30
0
11
275.35000000000002
21
-291.29900000000004
31
0
0
CIRCLE
5
112
100
AcDbEntity
8
0
100
AcDbCircle
10
275.35000000000002
20
280.63899999999995
30
0
40
1.9999999999999929
0
CIRCLE
5
113
100
AcDbEntity
8
0
100
AcDbCircle
10
275.35000000000002
20
266.49999999999994
30
0
40
1.9999999999999951
0
CIRCLE
5
114
100
AcDbEntity
8
0
100
AcDbCircle
10
275.35000000000002
20
-280.63900000000001
30
0
40
1.9999999999999993
0
CIRCLE
5
115
100
AcDbEntity
8
0
100
AcDbCircle
10
275.35000000000002
20
-266.5
30
0
40
2.0000000000000124
0
LINE
5
116
100
AcDbEntity
8
0
100
AcDbLine
10
-275.35000000000002
20
-266.5
30
0
11
275.35000000000002
21
-266.5
31
0
0
CIRCLE
5
117
100
AcDbEntity
8
0
100
AcDbCircle
10
-114.40000000000001
20
-266.5
30
0
40
2
0
LINE
5
118
100
AcDbEntity
8
0
100
AcDbLine
10
-114.40000000000001
20
-291.29900000000004
30
0
11
-114.39999999999998
21
278.63899999999995
31
0
0
CIRCLE
5
119
100
AcDbEntity
8
0
100
AcDbCircle
10
-114.40000000000003
20
266.49999999999994
30
0
40
1.999999999999994
0
CIRCLE
5
120
100
AcDbEntity
8
0
100
AcDbCircle
10
-114.39999999999998
20
280.63899999999995
30
0
40
1.9999999999999996
0
CIRCLE
5
121
100
AcDbEntity
8
0
100
AcDbCircle
10
-114.40000000000001
20
-280.63900000000001
30
0
40
2.0000000000000089
0
LWPOLYLINE
5
122
100
AcDbEntity
8
0
100
AcDbPolyline
90
4
70
1
43
0.0
10
298.19999999999999
20
296.29899999999998
10
-298.20000000000005
20
296.29899999999998
10
-298.19999999999999
20
-296.29900000000004
10
298.19999999999999
20
-296.29900000000004
0
LINE
5
123
100
AcDbEntity
8
0
100
AcDbLine
10
-298.20000000000005
20
101.29899999999998
30
0
11
298.20000000000005
21
101.29899999999994
31
0
0
LINE
5
124
100
AcDbEntity
8
0
100
AcDbLine
10
-298.20000000000005
20
-101.29900000000001
30
0
11
298.20000000000005
21
-101.29900000000001
31
0
0
CIRCLE
5
125
100
AcDbEntity
8
0
100
AcDbCircle
10
293.20000000000005
20
-91.299000000000049
30
0
40
1.9999999999999911
0
CIRCLE
5
126
100
AcDbEntity
8
0
100
AcDbCircle
10
293.20000000000005
20
-111.29900000000005
30
0
40
2.0000000000000098
0
CIRCLE
5
127
100
AcDbEntity
8
0
100
AcDbCircle
10
293.20000000000005
20
91.298999999999936
30
0
40
1.9999999999999973
0
CIRCLE
5
128
100
AcDbEntity
8
0
100
AcDbCircle
10
293.20000000000005
20
111.29899999999994
30
0
40
2.0000000000000178
0
CIRCLE
5
129
100
AcDbEntity
8
0
100
AcDbCircle
10
-293.20000000000005
20
111.29899999999998
30
0
40
2.0000000000000044
0
CIRCLE
5
130
100
AcDbEntity
8
0
100
AcDbCircle
10
-293.20000000000005
20
91.298999999999978
30
0
40
1.9999999999999842
0
CIRCLE
5
131
100
AcDbEntity
8
0
100
AcDbCircle
10
-293.20000000000005
20
-91.299000000000007
30
0
40
2.000000000000008
0
CIRCLE
5
132
100
AcDbEntity
8
0
100
AcDbCircle
10
-293.20000000000005
20
-111.29900000000001
30
0
40
2.0000000000000093
0
LINE
5
133
100
AcDbEntity
8
0
100
AcDbLine
10
-275.35000000000002
20
266.49999999999994
30
0
11
275.35000000000002
21
266.49999999999994
31
0
0
LINE
5
134
100
AcDbEntity
8
0
100
AcDbLine
10
-275.35000000000002
20
280.63899999999995
30
0
11
275.35000000000002
21
280.63899999999995
31
0
0
LINE
5
135
100
AcDbEntity
8
0
100
AcDbLine
10
275.35000000000002
20
-280.63900000000001
30
0
11
-275.35000000000002
21
-280.63900000000001
31
0
0
ENDSEC
0
SECTION
2
OBJECTS
0
DICTIONARY
5
C
100
AcDbDictionary
3
ACAD_GROUP
350
D
3
ACAD_MLINESTYLE
350
17
0
DICTIONARY
5
D
100
AcDbDictionary
0
DICTIONARY
5
1A
330
C
100
AcDbDictionary
0
DICTIONARY
5
17
100
AcDbDictionary
0
ENDSEC
0
EOF
